<svg width="32" height="32" viewBox="0 0 32 32" fill="none" xmlns="http://www.w3.org/2000/svg">
<g clip-path="url(#clip0_74_7496)">
<path d="M18 9H10C9.45 9 9 9.45 9 10C9 10.55 9.45 11 10 11H18C18.55 11 19 10.55 19 10C19 9.45 18.55 9 18 9Z" fill="#007AFF"/>
<path d="M18 13H10C9.45 13 9 13.45 9 14C9 14.55 9.45 15 10 15H18C18.55 15 19 14.55 19 14C19 13.45 18.55 13 18 13Z" fill="#007AFF"/>
<path d="M12 17H10C9.45 17 9 17.45 9 18C9 18.55 9.45 19 10 19H12C12.55 19 13 18.55 13 18C13 17.45 12.55 17 12 17Z" fill="#007AFF"/>
<path d="M26 18H23V5C23 4.45 22.55 4 22 4H6C5.45 4 5 4.45 5 5V25C5 26.66 6.35 28 8 28H24C25.65 28 27 26.65 27 25V19C27 18.45 26.55 18 26 18ZM7 25V6H21V25C21 25.35 21.07 25.69 21.18 26H8C7.45 26 7 25.55 7 25ZM25 25C25 25.55 24.55 26 24 26C23.45 26 23 25.55 23 25V20H25V25Z" fill="#007AFF"/>
</g>
<defs>
<clipPath id="clip0_74_7496">
<rect width="32" height="32" fill="white"/>
</clipPath>
</defs>
</svg>
