<svg width="24" height="24" viewBox="0 0 24 24" fill="none" xmlns="http://www.w3.org/2000/svg">
<g clip-path="url(#clip0_69_9424)">
<path d="M5 9C3.35 9 2 10.35 2 12C2 13.65 3.35 15 5 15C6.65 15 8 13.65 8 12C8 10.35 6.65 9 5 9ZM5 13C4.45 13 4 12.55 4 12C4 11.45 4.45 11 5 11C5.55 11 6 11.45 6 12C6 12.55 5.55 13 5 13Z" fill="black"/>
<path d="M19 9C17.35 9 16 10.35 16 12C16 13.65 17.35 15 19 15C20.65 15 22 13.65 22 12C22 10.35 20.65 9 19 9ZM19 13C18.45 13 18 12.55 18 12C18 11.45 18.45 11 19 11C19.55 11 20 11.45 20 12C20 12.55 19.55 13 19 13Z" fill="black"/>
<path d="M12 9C10.35 9 9 10.35 9 12C9 13.65 10.35 15 12 15C13.65 15 15 13.65 15 12C15 10.35 13.65 9 12 9ZM12 13C11.45 13 11 12.55 11 12C11 11.45 11.45 11 12 11C12.55 11 13 11.45 13 12C13 12.55 12.55 13 12 13Z" fill="black"/>
</g>
<defs>
<clipPath id="clip0_69_9424">
<rect width="24" height="24" fill="white"/>
</clipPath>
</defs>
</svg>
