<svg width="24" height="24" viewBox="0 0 24 24" fill="none" xmlns="http://www.w3.org/2000/svg">
<g clip-path="url(#clip0_69_9353)">
<path d="M16 4C15.86 4 15.71 4.03 15.58 4.09L2.58001 10.09C2.47001 10.14 2.38001 10.21 2.30001 10.29C2.29001 10.3 2.28001 10.32 2.27001 10.33C2.20001 10.41 2.14001 10.49 2.10001 10.58C2.08001 10.62 2.08001 10.66 2.07001 10.7C2.04001 10.78 2.03001 10.86 2.02001 10.94C2.02001 10.96 2.01001 10.98 2.01001 11V19C2.01001 19.55 2.46001 20 3.01001 20H6.01001C6.56001 20 7.01001 19.55 7.01001 19C7.01001 18.45 7.46001 18 8.01001 18C8.56001 18 9.01001 18.45 9.01001 19C9.01001 19.55 9.46001 20 10.01 20H21.01C21.56 20 22.01 19.55 22.01 19V11C22.01 7.56 19.77 4 16.01 4H16ZM16.21 6.01C18.26 6.13 19.59 7.97 19.92 10H7.55001L16.2 6.01H16.21ZM20 18H10.83C10.42 16.84 9.30001 16 8.00001 16C6.70001 16 5.58001 16.84 5.17001 18H4.00001V12H20V18Z" fill="black"/>
<path d="M16 17.25C17.24 17.25 18.25 16.24 18.25 15C18.25 13.76 17.24 12.75 16 12.75C14.76 12.75 13.75 13.76 13.75 15C13.75 16.24 14.76 17.25 16 17.25ZM16 14.25C16.41 14.25 16.75 14.59 16.75 15C16.75 15.41 16.41 15.75 16 15.75C15.59 15.75 15.25 15.41 15.25 15C15.25 14.59 15.59 14.25 16 14.25Z" fill="black"/>
</g>
<defs>
<clipPath id="clip0_69_9353">
<rect width="24" height="24" fill="white"/>
</clipPath>
</defs>
</svg>
