<svg width="24" height="24" viewBox="0 0 24 24" fill="none" xmlns="http://www.w3.org/2000/svg">
<g clip-path="url(#clip0_69_9386)">
<path d="M18.2901 2.79006C17.9001 2.40006 17.2701 2.40006 16.8801 2.79006L2.79006 16.8801C2.40006 17.2701 2.40006 17.9001 2.79006 18.2901C4.86006 20.3601 7.61006 21.5001 10.5401 21.5001C13.4701 21.5001 16.2201 20.3601 18.2901 18.2901C20.3601 16.2201 21.5001 13.4701 21.5001 10.5401C21.5001 7.61006 20.3601 4.86006 18.2901 2.79006ZM10.2101 12.2901L11.3101 16.6901C9.79006 16.8801 8.22006 16.5101 6.92006 15.5801L10.2101 12.2901ZM12.7701 16.3301L11.5801 11.5701L16.3401 12.7601C16.0401 13.5501 15.5901 14.3001 14.9501 14.9401C14.3101 15.5801 13.5601 16.0301 12.7701 16.3301ZM16.7001 11.3001L12.3001 10.2001L15.5901 6.91006C16.5201 8.21006 16.8901 9.77006 16.7001 11.3001ZM16.8901 16.8701C15.2001 18.5601 12.9501 19.4901 10.5601 19.4901C8.50006 19.4901 6.55006 18.8001 4.97006 17.5301L5.86006 16.6401C7.24006 17.7001 8.90006 18.2401 10.5601 18.2401C12.5401 18.2401 14.5201 17.4901 16.0201 15.9801C18.7901 13.2101 19.0001 8.84006 16.6801 5.82006L17.5701 4.93006C18.8401 6.51006 19.5301 8.46006 19.5301 10.5201C19.5301 12.9101 18.6001 15.1601 16.9101 16.8501L16.8901 16.8701Z" fill="black"/>
</g>
<defs>
<clipPath id="clip0_69_9386">
<rect width="24" height="24" fill="white"/>
</clipPath>
</defs>
</svg>
