<svg width="24" height="24" viewBox="0 0 24 24" fill="none" xmlns="http://www.w3.org/2000/svg">
<g clip-path="url(#clip0_69_9414)">
<path d="M20.73 14.7902C20.89 14.5802 21.03 14.3802 21.16 14.1702C21.2 14.1002 21.24 14.0302 21.28 13.9602C21.39 13.7702 21.49 13.5802 21.58 13.3802C21.62 13.3002 21.65 13.2202 21.68 13.1302C21.75 12.9402 21.82 12.7402 21.86 12.5502C21.88 12.4702 21.9 12.3902 21.92 12.3102C21.97 12.0402 22.01 11.7602 22.01 11.4902C22.01 6.34023 16.73 2.49023 12.01 2.49023C7.29 2.49023 2 6.35023 2 11.5002C2 11.7702 2.04 12.0502 2.09 12.3202C2.11 12.4002 2.13 12.4802 2.15 12.5602C2.2 12.7502 2.26 12.9502 2.33 13.1402C2.36 13.2202 2.39 13.3002 2.43 13.3902C2.51 13.5802 2.62 13.7702 2.73 13.9702C2.77 14.0402 2.8 14.1102 2.85 14.1802C2.98 14.3902 3.13 14.5902 3.28 14.8002C3.88 15.5802 4.63 16.3002 5.45 16.9402C5.16 17.4002 5.01 17.9402 5.01 18.5102C5.01 20.1602 6.36 21.5102 8.01 21.5102H16.01C17.66 21.5102 19.01 20.1602 19.01 18.5102C19.01 17.9402 18.85 17.4102 18.57 16.9402C19.39 16.3002 20.15 15.5802 20.74 14.8002L20.73 14.7902ZM18.1 14.6902C17.94 14.8302 17.78 14.9702 17.61 15.1102C17.57 15.1402 17.53 15.1702 17.49 15.2102C17.32 15.3402 17.15 15.4702 16.98 15.6002C16.93 15.6402 16.87 15.6802 16.81 15.7202C15.14 16.9302 13.19 17.9102 12 18.4202C10.81 17.9102 8.86 16.9302 7.19 15.7202C7.13 15.6802 7.08 15.6402 7.02 15.6002C6.85 15.4702 6.67 15.3402 6.51 15.2102C6.47 15.1802 6.43 15.1502 6.39 15.1102C6.22 14.9702 6.05 14.8302 5.9 14.6902C5.88 14.6702 5.87 14.6602 5.85 14.6402C5.42 14.2402 5.04 13.8302 4.74 13.4102C4.67 13.3102 4.59 13.2002 4.52 13.1002C4.48 13.0302 4.45 12.9602 4.41 12.8902C4.35 12.7802 4.28 12.6602 4.23 12.5502C4.19 12.4702 4.17 12.3802 4.15 12.3002C4.12 12.2002 4.08 12.1102 4.06 12.0102C4.02 11.8302 4 11.6602 4 11.4802C4 10.3502 4.36 9.29024 4.96 8.35023L6.79 10.1802C6.99 10.3802 7.24 10.4702 7.5 10.4702C7.76 10.4702 8.01 10.3702 8.21 10.1802C8.6 9.79024 8.6 9.16023 8.21 8.77024L6.26 6.82023C7.58 5.62023 9.3 4.80023 11.01 4.56023V8.48023C11.01 9.03023 11.46 9.48023 12.01 9.48023C12.56 9.48023 13.01 9.03023 13.01 8.48023V4.56023C14.71 4.80023 16.44 5.62023 17.76 6.82023L15.81 8.77024C15.42 9.16023 15.42 9.79024 15.81 10.1802C16.01 10.3802 16.26 10.4702 16.52 10.4702C16.78 10.4702 17.03 10.3702 17.23 10.1802L19.06 8.35023C19.66 9.29024 20.02 10.3402 20.02 11.4802C20.02 11.6502 20 11.8302 19.96 12.0102C19.94 12.1002 19.9 12.2002 19.87 12.3002C19.84 12.3802 19.82 12.4702 19.79 12.5502C19.74 12.6602 19.68 12.7702 19.62 12.8902C19.58 12.9602 19.55 13.0302 19.51 13.1002C19.45 13.2002 19.37 13.3002 19.3 13.4102C19 13.8302 18.62 14.2502 18.19 14.6402C18.17 14.6602 18.16 14.6702 18.14 14.6902H18.1ZM7 18.5002C7 18.3602 7.04 18.2202 7.09 18.1002C7.97 18.6602 8.83 19.1302 9.58 19.5002H8C7.45 19.5002 7 19.0502 7 18.5002ZM17 18.5002C17 19.0502 16.55 19.5002 16 19.5002H14.42C15.16 19.1302 16.03 18.6602 16.91 18.1002C16.97 18.2302 17 18.3602 17 18.5002Z" fill="black"/>
</g>
<defs>
<clipPath id="clip0_69_9414">
<rect width="24" height="24" fill="white"/>
</clipPath>
</defs>
</svg>
