<svg width="24" height="24" viewBox="0 0 24 24" fill="none" xmlns="http://www.w3.org/2000/svg">
<g clip-path="url(#clip0_69_9351)">
<path d="M22 11.0002C22 10.9402 22 10.8902 21.99 10.8302C21.99 10.6802 21.99 10.5302 21.98 10.3702C21.59 6.23023 17.21 2.99023 12.01 2.99023C6.81005 2.99023 2.45005 6.17024 2.04005 10.3502C2.01005 10.5502 2.00005 10.7602 2.00005 10.9602C2.00005 11.1502 1.99005 11.7502 2.00005 14.5802V15.0002C2.00005 18.3102 5.14005 21.0002 9.00005 21.0002C11 21.0002 12.91 20.2702 14.23 18.9902C14.89 18.3602 15.82 18.4202 16.47 18.7002C17.14 18.9802 17.8701 19.0702 18.6 18.9602C20.7001 18.6502 22.18 16.6402 21.98 14.4902L22 11.0102V11.0002ZM4.03005 10.5602C4.33005 7.44024 7.83005 4.99023 12 4.99023C16.17 4.99023 19.68 7.44024 19.98 10.5602C19.99 10.6802 19.98 10.8102 19.98 10.9302C19.98 10.9302 19.98 10.9502 19.98 10.9602C19.91 11.9702 19.22 12.8302 18.31 12.9702C17.94 13.0302 17.58 12.9802 17.24 12.8402C15.66 12.1902 13.9801 12.4602 12.85 13.5402C11.89 14.4602 10.4901 14.9902 9.01005 14.9902C6.25005 14.9902 4.01005 13.2002 4.01005 10.9902C4.01005 10.8502 4.01005 10.7202 4.04005 10.5602H4.03005ZM18.32 16.9702C17.95 17.0202 17.58 16.9802 17.25 16.8402C15.67 16.1802 13.99 16.4602 12.86 17.5402C11.9 18.4602 10.5001 18.9902 9.02005 18.9902C6.36005 18.9902 4.20005 17.3202 4.05005 15.2202C5.32005 16.3102 7.07005 16.9902 9.01005 16.9902C10.9501 16.9902 12.91 16.2602 14.24 14.9802C14.9 14.3502 15.83 14.4102 16.48 14.6802C17.15 14.9602 17.8801 15.0502 18.6101 14.9402C19.1201 14.8702 19.58 14.6902 20 14.4402V14.5602C20.1101 15.7302 19.3601 16.8102 18.33 16.9702H18.32Z" fill="black"/>
<path d="M8.5 12.75C9.74 12.75 10.75 11.74 10.75 10.5C10.75 9.26 9.74 8.25 8.5 8.25C7.26 8.25 6.25 9.26 6.25 10.5C6.25 11.74 7.26 12.75 8.5 12.75ZM8.5 9.75C8.91 9.75 9.25 10.09 9.25 10.5C9.25 10.91 8.91 11.25 8.5 11.25C8.09 11.25 7.75 10.91 7.75 10.5C7.75 10.09 8.09 9.75 8.5 9.75Z" fill="black"/>
</g>
<defs>
<clipPath id="clip0_69_9351">
<rect width="24" height="24" fill="white"/>
</clipPath>
</defs>
</svg>
