<svg width="24" height="24" viewBox="0 0 24 24" fill="none" xmlns="http://www.w3.org/2000/svg">
<g clip-path="url(#clip0_73_5681)">
<path d="M20.1 4.89976C18.57 3.36976 16.37 2.70976 14.22 3.11976C11.92 3.55976 9.98001 5.31976 9.29001 7.57976C9.15001 8.03976 9.06001 8.50976 9.02001 8.97976C8.97001 9.54976 8.56001 9.95976 7.99001 10.0098C7.52001 10.0498 7.05001 10.1398 6.59001 10.2798C4.32001 10.9698 2.57001 12.9098 2.12001 15.2098C1.71001 17.3598 2.37001 19.5598 3.90001 21.0898C5.13001 22.3198 6.79001 22.9898 8.52001 22.9898C8.94001 22.9898 9.36 22.9498 9.78 22.8698C12.08 22.4298 14.02 20.6698 14.71 18.3998C14.85 17.9398 14.94 17.4598 14.98 16.9898C15.02 16.4198 15.43 16.0098 16 15.9698C16.47 15.9298 16.94 15.8398 17.41 15.6998C19.68 15.0098 21.43 13.0698 21.88 10.7698C22.29 8.61976 21.63 6.41976 20.1 4.88976V4.89976ZM17.31 9.49976C16.84 8.74976 16.25 8.12976 15.57 7.62976C17.01 6.53976 18.28 6.23976 18.68 6.29976C18.74 6.70976 18.43 8.00976 17.3 9.47976L17.31 9.49976ZM5.32001 19.6798C5.27001 19.1898 5.65001 17.9298 6.65001 16.5698C7.14001 17.2498 7.76001 17.8298 8.52001 18.3098C7.09001 19.4098 5.84001 19.7498 5.38001 19.7298C5.36001 19.7098 5.34001 19.6998 5.33001 19.6798H5.32001ZM7.67001 15.4098C8.37001 14.7498 9.44001 14.0598 10.87 13.3398C11.61 12.9698 12.2 12.3898 12.56 11.6498C12.91 10.9498 13.62 9.52976 14.41 8.66976C15.18 9.13976 15.77 9.81976 16.24 10.6798C15.54 11.3098 14.51 11.9798 13.13 12.6698C12.39 13.0398 11.8 13.6298 11.44 14.3598C11.1 15.0398 10.43 16.3798 9.68001 17.2498C8.82001 16.7898 8.14001 16.1898 7.67001 15.4198V15.4098ZM14.6 5.08976C14.9 5.02976 15.21 4.99976 15.51 4.99976C15.96 4.99976 16.39 5.08976 16.81 5.20976C15.9 5.56976 14.99 6.13976 14.14 6.85976C13.57 6.62976 12.95 6.46976 12.28 6.36976C12.9 5.71976 13.71 5.25976 14.6 5.08976ZM8.16001 12.0198C9.72001 11.8998 10.9 10.7198 11.02 9.15976C11.05 8.82976 11.11 8.49976 11.21 8.17976C11.25 8.04976 11.31 7.91976 11.36 7.78976C11.94 7.82976 12.48 7.92976 12.97 8.06976C12.31 8.90976 11.74 9.94976 11.23 10.9898C11.01 11.4298 10.66 11.7798 10.21 11.9998C8.90001 12.6598 7.85001 13.3098 7.07001 13.9498C6.93001 13.4598 6.84001 12.9298 6.80001 12.3498C6.93001 12.2998 7.05001 12.2398 7.19001 12.1998C7.51001 12.0998 7.84001 12.0398 8.17001 12.0098L8.16001 12.0198ZM4.10001 15.5998C4.27001 14.7098 4.74001 13.9098 5.38001 13.2798C5.48001 13.9498 5.64001 14.5698 5.87001 15.1398C5.15001 15.9898 4.58001 16.9198 4.22001 17.8498C4.00001 17.1398 3.95001 16.3698 4.10001 15.5998ZM9.42001 20.9198C8.66001 21.0698 7.91001 21.0298 7.21001 20.8198C8.12001 20.4498 9.10001 19.8398 10 19.0498C10.55 19.2598 11.16 19.4398 11.81 19.5698C11.18 20.2598 10.35 20.7498 9.42001 20.9298V20.9198ZM15.86 13.9898C14.32 14.1098 13.12 15.3098 13 16.8498C12.97 17.1798 12.91 17.5098 12.81 17.8298C12.77 17.9498 12.72 18.0698 12.68 18.1798C12.13 18.0898 11.62 17.9798 11.15 17.8298C11.77 17.0098 12.31 16.0098 12.8 15.0198C13.02 14.5798 13.37 14.2298 13.82 14.0098C15.07 13.3898 16.09 12.7598 16.86 12.1498C17 12.6198 17.12 13.1198 17.2 13.6698C17.08 13.7198 16.97 13.7698 16.85 13.7998C16.52 13.8998 16.19 13.9598 15.87 13.9898H15.86ZM19.93 10.4098C19.75 11.3298 19.26 12.1598 18.57 12.7998C18.44 12.1398 18.26 11.5398 18.05 10.9798C18.85 10.0698 19.45 9.07976 19.81 8.15976C20.03 8.86976 20.08 9.63976 19.93 10.4098Z" fill="black"/>
</g>
<defs>
<clipPath id="clip0_73_5681">
<rect width="24" height="24" fill="white"/>
</clipPath>
</defs>
</svg>
