<svg width="24" height="24" viewBox="0 0 24 24" fill="none" xmlns="http://www.w3.org/2000/svg">
<g clip-path="url(#clip0_69_9412)">
<path d="M21.04 14.2498C21.12 14.1498 21.2 14.0598 21.26 13.9598C21.35 13.8198 21.42 13.6698 21.5 13.5198C21.55 13.4198 21.61 13.3198 21.66 13.2098C21.73 13.0398 21.78 12.8498 21.83 12.6698C21.86 12.5798 21.89 12.4898 21.91 12.3898C21.97 12.0998 22 11.8098 22 11.5098C22 9.57977 20.76 7.89977 18.99 7.27977C18.87 5.45977 17.35 4.00977 15.5 4.00977C15.03 4.00977 14.58 4.09977 14.16 4.27977C12.84 2.83977 10.97 2.00977 9 2.00977C5.14 2.00977 2 5.14977 2 9.00977C2 9.30977 2.03 9.59977 2.06 9.88977C2.06 9.96977 2.08 10.0398 2.1 10.1198C2.14 10.3498 2.19 10.5798 2.24 10.7998C2.26 10.8598 2.27 10.9198 2.29 10.9798C2.37 11.2598 2.47 11.5298 2.58 11.7898C2.6 11.8398 2.63 11.8798 2.65 11.9298C2.75 12.1398 2.85 12.3498 2.97 12.5398C3.01 12.6098 3.06 12.6898 3.1 12.7598C3.23 12.9598 3.36 13.1498 3.51 13.3398C3.54 13.3798 3.57 13.4198 3.6 13.4598C3.77 13.6698 3.96 13.8598 4.15 14.0398C4.22 14.1098 4.29 14.1698 4.36 14.2298C4.52 14.3698 4.68 14.4998 4.85 14.6298C4.91 14.6798 4.97 14.7198 5.03 14.7698C5.26 14.9298 5.5 15.0698 5.75 15.2098C5.77 15.2198 5.79 15.2298 5.81 15.2398L6.99 18.1998V21.0098C6.99 21.5598 7.44 22.0098 7.99 22.0098H15.99C16.54 22.0098 16.99 21.5598 16.99 21.0098V18.1998L17.87 15.9898C17.96 15.9898 18.05 15.9498 18.15 15.9398C18.29 15.9198 18.42 15.8998 18.55 15.8698C18.7 15.8298 18.85 15.7798 18.99 15.7298C19.11 15.6898 19.24 15.6398 19.36 15.5898C19.5 15.5298 19.63 15.4498 19.76 15.3698C19.87 15.2998 19.98 15.2398 20.09 15.1698C20.22 15.0798 20.33 14.9798 20.45 14.8798C20.54 14.7998 20.64 14.7198 20.73 14.6298C20.84 14.5198 20.93 14.3898 21.03 14.2598L21.04 14.2498ZM9 3.99977C10.63 3.99977 12.17 4.79977 13.1 6.14977C13.26 6.37977 13.51 6.52977 13.78 6.56977C14.06 6.60977 14.34 6.52977 14.55 6.34977C14.74 6.18977 15.06 5.99977 15.49 5.99977C16.32 5.99977 16.99 6.66977 16.99 7.49977C16.99 7.59977 16.98 7.70977 16.95 7.82977C16.89 8.09977 16.95 8.38977 17.11 8.61977C17.27 8.84977 17.52 8.99977 17.8 9.03977C19.05 9.19977 19.99 10.2598 19.99 11.4998C19.99 11.6698 19.97 11.8398 19.94 11.9998C19.71 13.1298 18.7 13.9898 17.43 13.9898H17.28L17.26 13.9798C16.18 13.8798 15.26 13.0798 15.04 11.9998C14.96 11.5998 14.64 11.2898 14.24 11.2098C14.18 11.1998 14.12 11.1898 14.06 11.1898C13.72 11.1898 13.4 11.3598 13.21 11.6598C12.29 13.1198 10.71 13.9998 8.99 13.9998C7.98 13.9998 7.05 13.6898 6.26 13.1798C6.19 13.1398 6.13 13.0898 6.07 13.0398C5.89 12.9098 5.72 12.7698 5.57 12.6198C5.51 12.5598 5.45 12.4998 5.39 12.4398C5.22 12.2598 5.07 12.0798 4.92 11.8798C4.89 11.8398 4.86 11.8098 4.83 11.7698C4.67 11.5298 4.54 11.2798 4.42 11.0198C4.39 10.9498 4.36 10.8698 4.33 10.7898C4.25 10.5898 4.19 10.3798 4.14 10.1598C4.12 10.0698 4.1 9.98977 4.08 9.89977C4.03 9.60977 3.99 9.30977 3.99 8.99977C3.99 6.23977 6.23 3.99977 8.99 3.99977H9ZM13.55 14.2998L12.97 15.4098L12.7 14.9298C13 14.7398 13.28 14.5298 13.54 14.2998H13.55ZM15 17.9998V19.9998H9V17.9998C9 17.8698 8.98 17.7498 8.93 17.6298L8.26 15.9598C8.5 15.9898 8.75 15.9998 9 15.9998C9.82 15.9998 10.61 15.8498 11.36 15.5898L12.35 17.3698C12.48 17.6098 12.73 17.7598 13.01 17.7598H13.02C13.3 17.7598 13.55 17.5998 13.68 17.3598L14.84 15.1198C15.15 15.3498 15.5 15.5498 15.86 15.6898L15.08 17.6398C15.03 17.7598 15.01 17.8798 15.01 18.0098L15 17.9998Z" fill="black"/>
</g>
<defs>
<clipPath id="clip0_69_9412">
<rect width="24" height="24" fill="white"/>
</clipPath>
</defs>
</svg>
