<svg width="24" height="24" viewBox="0 0 24 24" fill="none" xmlns="http://www.w3.org/2000/svg">
<g clip-path="url(#clip0_69_9061)">
<path d="M4 11.9998C4.55 11.9998 5 11.5498 5 10.9998V7.9998H17.59L16.3 9.2898C15.91 9.6798 15.91 10.3098 16.3 10.6998C16.5 10.8998 16.75 10.9898 17.01 10.9898C17.27 10.9898 17.52 10.8898 17.72 10.6998L20.72 7.6998C20.81 7.6098 20.89 7.4998 20.94 7.3698C21.04 7.1298 21.04 6.8498 20.94 6.6098C20.89 6.4898 20.82 6.3798 20.72 6.2798L17.72 3.2798C17.33 2.8898 16.7 2.8898 16.31 3.2798C15.92 3.6698 15.92 4.2998 16.31 4.6898L17.6 5.9798H4C3.45 5.9798 3 6.4298 3 6.9798V10.9798C3 11.5298 3.45 11.9798 4 11.9798V11.9998Z" fill="black"/>
<path d="M20.0001 12C19.4501 12 19.0001 12.45 19.0001 13V16H6.41012L7.70012 14.71C8.09012 14.32 8.09012 13.69 7.70012 13.3C7.31012 12.91 6.68012 12.91 6.29012 13.3L3.29012 16.3C3.20012 16.39 3.12012 16.5 3.07012 16.63C2.97012 16.87 2.97012 17.15 3.07012 17.39C3.12012 17.51 3.19012 17.62 3.29012 17.72L6.29012 20.72C6.49012 20.92 6.74012 21.01 7.00012 21.01C7.26012 21.01 7.51012 20.91 7.71012 20.72C8.10012 20.33 8.10012 19.7 7.71012 19.31L6.42012 18.02H20.0101C20.5601 18.02 21.0101 17.57 21.0101 17.02V13.02C21.0101 12.47 20.5601 12.02 20.0101 12.02L20.0001 12Z" fill="black"/>
</g>
<defs>
<clipPath id="clip0_69_9061">
<rect width="24" height="24" fill="white"/>
</clipPath>
</defs>
</svg>
