<svg width="32" height="32" viewBox="0 0 32 32" fill="none" xmlns="http://www.w3.org/2000/svg">
<g clip-path="url(#clip0_74_7497)">
<path d="M5 12C5.55 12 6 11.55 6 11V6H11C11.55 6 12 5.55 12 5C12 4.45 11.55 4 11 4H5C4.45 4 4 4.45 4 5V11C4 11.55 4.45 12 5 12Z" fill="#34C759"/>
<path d="M27 4H21C20.45 4 20 4.45 20 5C20 5.55 20.45 6 21 6H26V11C26 11.55 26.45 12 27 12C27.55 12 28 11.55 28 11V5C28 4.45 27.55 4 27 4Z" fill="#34C759"/>
<path d="M11 26H6V21C6 20.45 5.55 20 5 20C4.45 20 4 20.45 4 21V27C4 27.55 4.45 28 5 28H11C11.55 28 12 27.55 12 27C12 26.45 11.55 26 11 26Z" fill="#34C759"/>
<path d="M27 20C26.45 20 26 20.45 26 21V26H21C20.45 26 20 26.45 20 27C20 27.55 20.45 28 21 28H27C27.55 28 28 27.55 28 27V21C28 20.45 27.55 20 27 20Z" fill="#34C759"/>
<path d="M14 8H9C8.45 8 8 8.45 8 9V14C8 14.55 8.45 15 9 15H14C14.55 15 15 14.55 15 14V9C15 8.45 14.55 8 14 8ZM13 13H10V10H13V13Z" fill="#34C759"/>
<path d="M18 15H23C23.55 15 24 14.55 24 14V9C24 8.45 23.55 8 23 8H18C17.45 8 17 8.45 17 9V14C17 14.55 17.45 15 18 15ZM19 10H22V13H19V10Z" fill="#34C759"/>
<path d="M24 23V18C24 17.45 23.55 17 23 17H18C17.45 17 17 17.45 17 18V23C17 23.55 17.45 24 18 24H23C23.55 24 24 23.55 24 23ZM22 22H19V19H22V22Z" fill="#34C759"/>
</g>
<defs>
<clipPath id="clip0_74_7497">
<rect width="32" height="32" fill="white"/>
</clipPath>
</defs>
</svg>
