<svg width="24" height="24" viewBox="0 0 24 24" fill="none" xmlns="http://www.w3.org/2000/svg">
<g clip-path="url(#clip0_69_9062)">
<path d="M10 7H20C20.55 7 21 6.55 21 6C21 5.45 20.55 5 20 5H10C9.45 5 9 5.45 9 6C9 6.55 9.45 7 10 7Z" fill="black"/>
<path d="M6 5H4C3.45 5 3 5.45 3 6C3 6.55 3.45 7 4 7H6C6.55 7 7 6.55 7 6C7 5.45 6.55 5 6 5Z" fill="black"/>
<path d="M20 17H10C9.45 17 9 17.45 9 18C9 18.55 9.45 19 10 19H20C20.55 19 21 18.55 21 18C21 17.45 20.55 17 20 17Z" fill="black"/>
<path d="M6 17H4C3.45 17 3 17.45 3 18C3 18.55 3.45 19 4 19H6C6.55 19 7 18.55 7 18C7 17.45 6.55 17 6 17Z" fill="black"/>
<path d="M20 11H10C9.45 11 9 11.45 9 12C9 12.55 9.45 13 10 13H20C20.55 13 21 12.55 21 12C21 11.45 20.55 11 20 11Z" fill="black"/>
<path d="M6 11H4C3.45 11 3 11.45 3 12C3 12.55 3.45 13 4 13H6C6.55 13 7 12.55 7 12C7 11.45 6.55 11 6 11Z" fill="black"/>
</g>
<defs>
<clipPath id="clip0_69_9062">
<rect width="24" height="24" fill="white"/>
</clipPath>
</defs>
</svg>
