<svg width="14" height="14" viewBox="0 0 14 14" fill="none" xmlns="http://www.w3.org/2000/svg">
<g clip-path="url(#clip0_85_5399)">
<path d="M6.99023 1C3.68023 1 0.990234 3.69 0.990234 7C0.990234 10.31 3.68023 13 6.99023 13C10.3002 13 12.9902 10.31 12.9902 7C12.9902 3.69 10.3102 1 6.99023 1ZM6.99023 12C4.23023 12 1.99023 9.76 1.99023 7C1.99023 4.24 4.24023 2 6.99023 2C9.74023 2 11.9902 4.24 11.9902 7C11.9902 9.76 9.75023 12 6.99023 12Z" fill="black"/>
<path d="M8.99023 6.5H7.49023V4C7.49023 3.72 7.27023 3.5 6.99023 3.5C6.71023 3.5 6.49023 3.72 6.49023 4V7C6.49023 7.28 6.71023 7.5 6.99023 7.5H8.99023C9.27023 7.5 9.49023 7.28 9.49023 7C9.49023 6.72 9.27023 6.5 8.99023 6.5Z" fill="black"/>
</g>
<defs>
<clipPath id="clip0_85_5399">
<rect width="14" height="14" fill="white"/>
</clipPath>
</defs>
</svg>
