<svg width="32" height="32" viewBox="0 0 32 32" fill="none" xmlns="http://www.w3.org/2000/svg">
<g clip-path="url(#clip0_74_7495)">
<path d="M28.8001 11.3999C28.6101 11.1499 28.3201 10.9999 28.0001 10.9999H24.5301L20.8301 5.44994C20.5201 4.98994 19.9001 4.86994 19.4401 5.16994C18.9801 5.47994 18.8601 6.09994 19.1601 6.55994L22.1201 10.9999H9.87007L12.8301 6.55994C13.1401 6.09994 13.0101 5.47994 12.5501 5.16994C12.0901 4.85994 11.4701 4.98994 11.1601 5.44994L7.46007 10.9999H3.99007C3.68007 10.9999 3.38007 11.1499 3.19007 11.3999C3.00007 11.6499 2.94007 11.9799 3.03007 12.2799L7.03007 26.2799C7.15007 26.7099 7.55007 27.0099 7.99007 27.0099H24.0001C24.4501 27.0099 24.8401 26.7099 24.9601 26.2799L28.9601 12.2799C29.0501 11.9799 28.9901 11.6499 28.8001 11.3999ZM23.2501 24.9999H8.75007L5.32007 12.9999H7.99007H23.9801H26.6501L23.2201 24.9999H23.2501Z" fill="black"/>
<path d="M16 16C15.45 16 15 16.45 15 17V21C15 21.55 15.45 22 16 22C16.55 22 17 21.55 17 21V17C17 16.45 16.55 16 16 16Z" fill="black"/>
<path d="M21 16C20.45 16 20 16.45 20 17V21C20 21.55 20.45 22 21 22C21.55 22 22 21.55 22 21V17C22 16.45 21.55 16 21 16Z" fill="black"/>
<path d="M11 16C10.45 16 10 16.45 10 17V21C10 21.55 10.45 22 11 22C11.55 22 12 21.55 12 21V17C12 16.45 11.55 16 11 16Z" fill="black"/>
</g>
<defs>
<clipPath id="clip0_74_7495">
<rect width="32" height="32" fill="white"/>
</clipPath>
</defs>
</svg>
