<svg width="24" height="24" viewBox="0 0 24 24" fill="none" xmlns="http://www.w3.org/2000/svg">
<g clip-path="url(#clip0_69_9350)">
<path d="M20.96 6.73C20.96 6.73 20.94 6.68 20.93 6.65C20.91 6.59 20.88 6.54 20.85 6.48C20.83 6.45 20.81 6.43 20.79 6.4C20.75 6.35 20.71 6.31 20.66 6.26C20.64 6.24 20.62 6.22 20.59 6.2C20.59 6.2 20.57 6.18 20.56 6.18C20.49 6.13 20.42 6.1 20.34 6.07L12.35 3.06C12.12 2.98 11.87 2.98 11.65 3.06L3.64999 6.06C3.56999 6.09 3.49999 6.13 3.42999 6.17C3.42999 6.17 3.40999 6.19 3.39999 6.19C3.37999 6.21 3.35999 6.23 3.32999 6.25C3.27999 6.29 3.23999 6.34 3.19999 6.39C3.17999 6.42 3.15999 6.44 3.13999 6.47C3.10999 6.52 3.07999 6.58 3.05999 6.64C3.04999 6.67 3.03999 6.69 3.02999 6.72C2.99999 6.81 2.98999 6.9 2.98999 6.99V16.99C2.98999 17.41 3.24999 17.78 3.63999 17.93L11.64 20.93C11.64 20.93 11.66 20.93 11.67 20.93C11.78 20.97 11.88 20.99 12 20.99C12.12 20.99 12.22 20.97 12.33 20.93C12.33 20.93 12.35 20.93 12.36 20.93L20.36 17.93C20.75 17.78 21.01 17.41 21.01 16.99V7C21.01 6.91 20.99 6.81 20.97 6.73H20.96ZM11 18.56L4.99999 16.31V8.45L11 10.7V18.56ZM12 8.94L6.84999 7.01L12 5.08L17.15 7.01L12 8.94ZM19 16.32L13 18.57V10.71L19 8.46V16.32Z" fill="black"/>
<path d="M9 14C9.55228 14 10 13.5523 10 13C10 12.4477 9.55228 12 9 12C8.44772 12 8 12.4477 8 13C8 13.5523 8.44772 14 9 14Z" fill="black"/>
<path d="M15 17C15.5523 17 16 16.5523 16 16C16 15.4477 15.5523 15 15 15C14.4477 15 14 15.4477 14 16C14 16.5523 14.4477 17 15 17Z" fill="black"/>
<path d="M17 13C17.5523 13 18 12.5523 18 12C18 11.4477 17.5523 11 17 11C16.4477 11 16 11.4477 16 12C16 12.5523 16.4477 13 17 13Z" fill="black"/>
</g>
<defs>
<clipPath id="clip0_69_9350">
<rect width="24" height="24" fill="white"/>
</clipPath>
</defs>
</svg>
