<svg width="24" height="24" viewBox="0 0 24 24" fill="none" xmlns="http://www.w3.org/2000/svg">
<g clip-path="url(#clip0_69_9091)">
<path d="M20.1701 13.03L16.6801 13.81L13.8401 12L16.6801 10.19L20.1701 10.97C20.2201 10.98 20.2801 10.99 20.3301 10.99C20.6701 10.99 20.9801 10.75 21.0601 10.4C21.1501 9.99998 20.8901 9.58998 20.4901 9.49998L18.4601 9.04998L19.2501 8.54998L20.0901 8.00998C20.5601 7.70998 20.6901 7.08998 20.4001 6.62998C20.1001 6.16998 19.4901 6.02998 19.0201 6.31998L17.3801 7.35998L17.8301 5.32998C17.9201 4.91998 17.6601 4.51998 17.2601 4.42998C16.8501 4.33998 16.4601 4.59998 16.3601 4.99998L15.5801 8.48998L12.9501 10.16V7.03998L15.4801 4.50998C15.7701 4.21998 15.7701 3.73998 15.4801 3.44998C15.1901 3.15998 14.7101 3.15998 14.4201 3.44998L12.9501 4.91998V2.97998C12.9501 2.42998 12.5001 1.97998 11.9501 1.97998C11.4001 1.97998 10.9501 2.42998 10.9501 2.97998V4.91998L9.48009 3.44998C9.19009 3.15998 8.71009 3.15998 8.42009 3.44998C8.13009 3.73998 8.13009 4.21998 8.42009 4.50998L10.9501 7.03998V10.16L8.32009 8.48998L7.54009 4.99998C7.45009 4.59998 7.05009 4.33998 6.64009 4.42998C6.24009 4.51998 5.98009 4.91998 6.07009 5.32998L6.52009 7.35998L4.88009 6.31998C4.41009 6.02998 3.80009 6.15998 3.50009 6.62998C3.20009 7.09998 3.34009 7.70998 3.81009 8.00998L4.65009 8.54998L5.44009 9.04998L3.41009 9.49998C3.01009 9.58998 2.75009 9.98998 2.84009 10.4C2.92009 10.75 3.23009 10.99 3.57009 10.99C3.62009 10.99 3.68009 10.99 3.73009 10.97L7.22009 10.19L10.0601 12L7.22009 13.81L3.73009 13.03C3.33009 12.95 2.92009 13.19 2.83009 13.6C2.74009 14 3.00009 14.41 3.40009 14.5L5.43009 14.95L4.64009 15.45L3.80009 15.99C3.33009 16.29 3.20009 16.91 3.49009 17.37C3.68009 17.67 4.00009 17.83 4.33009 17.83C4.51009 17.83 4.70009 17.78 4.87009 17.67L6.51009 16.63L6.06009 18.66C5.97009 19.06 6.23009 19.47 6.63009 19.56C6.68009 19.57 6.74009 19.58 6.79009 19.58C7.13009 19.58 7.44009 19.34 7.52009 18.99L8.30009 15.5L10.9301 13.83V16.95L8.40009 19.48C8.11009 19.77 8.11009 20.25 8.40009 20.54C8.69009 20.83 9.17009 20.83 9.46009 20.54L10.9301 19.07V21.01C10.9301 21.56 11.3801 22.01 11.9301 22.01C12.4801 22.01 12.9301 21.56 12.9301 21.01V19.07L14.4001 20.54C14.5501 20.69 14.7401 20.76 14.9301 20.76C15.1201 20.76 15.3101 20.69 15.4601 20.54C15.7501 20.25 15.7501 19.77 15.4601 19.48L12.9301 16.95V13.83L15.5601 15.5L16.3401 18.99C16.4201 19.34 16.7301 19.58 17.0701 19.58C17.1201 19.58 17.1801 19.58 17.2301 19.56C17.6301 19.47 17.8901 19.07 17.8001 18.66L17.3501 16.63L18.9901 17.67C19.1601 17.78 19.3401 17.83 19.5301 17.83C19.8601 17.83 20.1801 17.67 20.3701 17.37C20.6701 16.9 20.5301 16.29 20.0601 15.99L19.2201 15.45L18.4301 14.95L20.4601 14.5C20.8601 14.41 21.1201 14.01 21.0301 13.6C20.9401 13.2 20.5401 12.94 20.1301 13.03H20.1701Z" fill="black"/>
</g>
<defs>
<clipPath id="clip0_69_9091">
<rect width="24" height="24" fill="white"/>
</clipPath>
</defs>
</svg>
