<svg width="24" height="24" viewBox="0 0 24 24" fill="none" xmlns="http://www.w3.org/2000/svg">
<g clip-path="url(#clip0_86_24933)">
<path d="M17.2501 21.9998C17.0801 21.9998 16.9101 21.9598 16.7501 21.8698L12.0001 19.1498L7.2501 21.8698C6.9201 22.0598 6.5201 22.0398 6.2101 21.8398C5.9001 21.6298 5.7201 21.2698 5.7601 20.8898L6.4501 14.6698L2.3601 11.2598C2.0701 11.0198 1.9401 10.6398 2.0301 10.2698C2.1201 9.89979 2.4001 9.60979 2.7601 9.51979L8.3101 8.12979L11.1001 2.53979C11.4401 1.85979 12.5501 1.85979 12.8901 2.53979L15.6801 8.12979L21.2301 9.51979C21.6001 9.60979 21.8801 9.89979 21.9601 10.2698C22.0401 10.6398 21.9201 11.0198 21.6301 11.2598L17.5401 14.6698L18.2301 20.8898C18.2701 21.2598 18.1001 21.6298 17.7801 21.8398C17.6101 21.9498 17.4201 21.9998 17.2301 21.9998H17.2501ZM12.0001 16.9998C12.1701 16.9998 12.3401 17.0398 12.5001 17.1298L16.0401 19.1498L15.5101 14.3498C15.4701 14.0198 15.6101 13.6898 15.8601 13.4698L18.8501 10.9798L14.7601 9.95979C14.4801 9.88979 14.2401 9.69979 14.1101 9.43979L12.0001 5.22979L9.8901 9.43979C9.7601 9.69979 9.5201 9.88979 9.2401 9.95979L5.1501 10.9798L8.1401 13.4698C8.4001 13.6798 8.5301 14.0098 8.4901 14.3498L7.9601 19.1498L11.5001 17.1298C11.6501 17.0398 11.8301 16.9998 12.0001 16.9998Z" fill="black"/>
</g>
<defs>
<clipPath id="clip0_86_24933">
<rect width="24" height="24" fill="white"/>
</clipPath>
</defs>
</svg>
