<svg width="24" height="24" viewBox="0 0 24 24" fill="none" xmlns="http://www.w3.org/2000/svg">
<g clip-path="url(#clip0_73_5725)">
<g clip-path="url(#clip1_73_5725)">
<path d="M12 2C6.49 2 2 6.49 2 12C2 17.51 6.49 22 12 22C17.51 22 22 17.51 22 12C22 6.49 17.51 2 12 2ZM12 20C7.59 20 4 16.41 4 12C4 7.59 7.59 4 12 4C16.41 4 20 7.59 20 12C20 16.41 16.41 20 12 20Z" fill="black"/>
<path d="M12.83 16.44C12.83 16.44 12.75 16.34 12.71 16.29C12.66 16.25 12.61 16.21 12.56 16.17C12.5 16.13 12.44 16.1 12.38 16.08C12.32 16.05 12.26 16.03 12.2 16.02C12 15.98 11.8 16 11.62 16.08C11.5 16.13 11.39 16.2 11.29 16.29C11.2 16.39 11.13 16.49 11.08 16.62C11.03 16.74 11 16.87 11 17C11 17.26 11.11 17.52 11.29 17.71C11.48 17.89 11.74 18 12 18C12.07 18 12.13 18 12.2 17.98C12.26 17.98 12.32 17.95 12.38 17.92C12.44 17.9 12.5 17.87 12.56 17.83C12.61 17.8 12.66 17.75 12.71 17.71C12.9 17.52 13 17.26 13 17C13 16.87 12.98 16.74 12.92 16.62C12.9 16.56 12.87 16.5 12.83 16.44Z" fill="black"/>
<path d="M12 6.5C10.07 6.5 8.5 8.07 8.5 10C8.5 10.55 8.95 11 9.5 11C10.05 11 10.5 10.55 10.5 10C10.5 9.17 11.17 8.5 12 8.5C12.83 8.5 13.5 9.17 13.5 10C13.5 10.83 12.83 11.5 12 11.5C11.45 11.5 11 11.95 11 12.5V14C11 14.55 11.45 15 12 15C12.55 15 13 14.55 13 14V13.35C14.45 12.92 15.5 11.58 15.5 10C15.5 8.07 13.93 6.5 12 6.5Z" fill="black"/>
</g>
</g>
<defs>
<clipPath id="clip0_73_5725">
<rect width="24" height="24" fill="white"/>
</clipPath>
<clipPath id="clip1_73_5725">
<rect width="24" height="24" fill="white"/>
</clipPath>
</defs>
</svg>
