<svg width="24" height="24" viewBox="0 0 24 24" fill="none" xmlns="http://www.w3.org/2000/svg">
<g clip-path="url(#clip0_69_9060)">
<path d="M19.9499 16.69L18.7099 12.84V10C18.7099 5.88 15.9499 3 11.9999 3C8.04988 3 5.28988 5.88 5.28988 10V12.84L4.04988 16.69C3.94988 16.99 4.00988 17.33 4.18988 17.58C4.37988 17.84 4.67988 17.99 4.99988 17.99H8.13988C8.58988 19.71 10.1399 20.99 11.9999 20.99C13.8599 20.99 15.4099 19.71 15.8599 17.99H18.9999C19.3199 17.99 19.6199 17.84 19.8099 17.58C19.9999 17.32 20.0499 16.99 19.9499 16.69ZM11.9999 19C11.2599 19 10.6099 18.6 10.2699 18H13.7299C13.3799 18.6 12.7399 19 11.9999 19ZM14.9999 16H6.36988L7.23988 13.31C7.26988 13.21 7.28988 13.11 7.28988 13V10C7.28988 6.96 9.13988 5 11.9999 5C14.8599 5 16.7099 6.96 16.7099 10V13C16.7099 13.1 16.7299 13.21 16.7599 13.31L17.6299 16H14.9999Z" fill="black"/>
</g>
<defs>
<clipPath id="clip0_69_9060">
<rect width="24" height="24" fill="white"/>
</clipPath>
</defs>
</svg>
