<svg width="24" height="24" viewBox="0 0 24 24" fill="none" xmlns="http://www.w3.org/2000/svg">
<g clip-path="url(#clip0_69_9349)">
<path d="M20.2799 7.94982L19.2199 9.00982L16.7399 8.65982L21.6899 3.70982C22.0799 3.31982 22.0799 2.68982 21.6899 2.29982C21.2999 1.90982 20.6699 1.90982 20.2799 2.29982L15.3299 7.24982L14.9799 4.76982L16.0399 3.70982C16.4299 3.31982 16.4299 2.68982 16.0399 2.29982C15.6499 1.90982 15.0199 1.90982 14.6299 2.29982L13.2199 3.70982L10.7499 6.17982L9.13988 7.78982L7.21988 9.70982C6.32988 10.5998 5.90988 11.8698 6.08988 13.1098L6.50988 16.0798L5.24988 17.3398C5.07988 16.6798 4.74988 16.0498 4.22988 15.5298L3.51988 14.8198C3.12988 14.4298 2.49988 14.4298 2.10988 14.8198C1.71988 15.2098 1.71988 15.8398 2.10988 16.2298L2.81988 16.9398C3.59988 17.7198 3.59988 18.9898 2.81988 19.7698L2.30988 20.2798C1.91988 20.6698 1.91988 21.2998 2.30988 21.6898C2.50988 21.8898 2.75988 21.9798 3.01988 21.9798C3.27988 21.9798 3.52988 21.8798 3.72988 21.6898L7.93988 17.4798L10.9099 17.8998C11.0999 17.9298 11.2799 17.9398 11.4699 17.9398C12.5199 17.9398 13.5499 17.5198 14.2999 16.7698L16.2199 14.8498L17.8299 13.2398L20.2999 10.7698L21.7099 9.35982C22.0999 8.96982 22.0999 8.33982 21.7099 7.94982C21.3199 7.55982 20.6899 7.55982 20.2999 7.94982H20.2799ZM8.25988 14.3098L8.04988 12.8298C7.95988 12.2098 8.16988 11.5798 8.61988 11.1298L8.96988 10.7798L9.57988 10.1698L9.66988 10.0798L9.87988 11.5698C9.96988 12.1898 9.75988 12.8198 9.31988 13.2598L8.25988 14.3198V14.3098ZM15.9699 10.5598L17.4599 10.7698L16.3999 11.8298C15.9599 12.2698 15.3199 12.4798 14.6999 12.3898L13.2199 12.1798L14.2799 11.1198C14.7199 10.6798 15.3599 10.4698 15.9699 10.5598ZM13.4299 8.01982C13.5199 8.63982 13.3099 9.26982 12.8699 9.70982L11.8099 10.7698L11.5999 9.28982C11.5099 8.66982 11.7199 8.03982 12.1599 7.58982L13.2199 6.52982L13.4299 8.01982ZM11.1699 15.9398L9.68988 15.7298L10.7499 14.6698C11.1899 14.2298 11.8299 14.0098 12.4399 14.1098L13.9299 14.3198L13.8399 14.4098L13.2299 15.0198L12.8799 15.3698C12.4399 15.8098 11.7999 16.0298 11.1799 15.9398H11.1699Z" fill="black"/>
</g>
<defs>
<clipPath id="clip0_69_9349">
<rect width="24" height="24" fill="white"/>
</clipPath>
</defs>
</svg>
