<svg width="24" height="24" viewBox="0 0 24 24" fill="none" xmlns="http://www.w3.org/2000/svg">
<path d="M19.9702 5H16.9702V4C16.9702 3.45 16.5202 3 15.9702 3C15.4202 3 14.9702 3.45 14.9702 4V5H8.97021V4C8.97021 3.45 8.52022 3 7.97021 3C7.42021 3 6.97021 3.45 6.97021 4V5H3.97021C3.42021 5 2.97021 5.45 2.97021 6V20C2.97021 20.55 3.42021 21 3.97021 21H19.9702C20.5202 21 20.9702 20.55 20.9702 20V6C20.9702 5.45 20.5202 5 19.9702 5ZM18.9702 19H4.97021V7H18.9702V19Z" fill="black"/>
<path d="M11.9702 9C11.4202 9 10.9702 9.45 10.9702 10V13C10.9702 13.55 11.4202 14 11.9702 14C12.5202 14 12.9702 13.55 12.9702 13V10C12.9702 9.45 12.5202 9 11.9702 9Z" fill="black"/>
<path d="M12.6802 15.2902C12.3002 14.9202 11.6402 14.9202 11.2602 15.2902C11.1702 15.3902 11.1002 15.5002 11.0502 15.6202C11.0002 15.7402 10.9702 15.8702 10.9702 16.0002C10.9702 16.2602 11.0802 16.5202 11.2602 16.7102C11.3102 16.7502 11.3602 16.8002 11.4202 16.8302C11.4702 16.8702 11.5302 16.9002 11.5902 16.9202C11.6502 16.9502 11.7102 16.9702 11.7802 16.9802C11.8402 17.0002 11.9102 17.0002 11.9702 17.0002C12.2302 17.0002 12.4902 16.9002 12.6802 16.7102C12.7702 16.6202 12.8402 16.5102 12.8902 16.3802C12.9502 16.2602 12.9702 16.1302 12.9702 16.0002C12.9702 15.8702 12.9502 15.7402 12.8902 15.6202C12.8402 15.5002 12.7702 15.3902 12.6802 15.2902Z" fill="black"/>
</svg>
