<svg width="24" height="24" viewBox="0 0 24 24" fill="none" xmlns="http://www.w3.org/2000/svg">
<g clip-path="url(#clip0_69_9423)">
<path d="M19.82 4.57023C20.03 4.26023 20.06 3.87023 19.89 3.53023C19.72 3.20023 19.38 2.99023 19 2.99023H5.00003C4.63003 2.99023 4.29003 3.20023 4.11003 3.53023C3.94003 3.86023 3.96003 4.26023 4.18003 4.57023L11 14.3102V19.9902H8.00003C7.45003 19.9902 7.00003 20.4402 7.00003 20.9902C7.00003 21.5402 7.45003 21.9902 8.00003 21.9902H16C16.55 21.9902 17 21.5402 17 20.9902C17 20.4402 16.55 19.9902 16 19.9902H13V14.3102L19.82 4.57023ZM9.72003 9.00023H14.28L12 12.2602L9.72003 9.00023ZM17.08 5.00023L15.68 7.00023H8.32002L6.92003 5.00023H17.08Z" fill="black"/>
</g>
<defs>
<clipPath id="clip0_69_9423">
<rect width="24" height="24" fill="white"/>
</clipPath>
</defs>
</svg>
