<svg width="24" height="24" viewBox="0 0 24 24" fill="none" xmlns="http://www.w3.org/2000/svg">
<g clip-path="url(#clip0_69_9413)">
<path d="M19.85 13.47L15.65 6.75C15.86 6.57 16 6.3 16 6V3C16 2.45 15.55 2 15 2H9C8.45 2 8 2.45 8 3V6C8 6.3 8.14 6.56 8.35 6.75L4.15 13.47C4.05 13.63 4 13.81 4 14V21C4 21.55 4.45 22 5 22H19C19.55 22 20 21.55 20 21V14C20 13.81 19.95 13.63 19.85 13.47ZM10 4H14V5H10V4ZM18 20H6V14.29L10.55 7H13.44L17.99 14.29V20H18Z" fill="black"/>
<path d="M8 16V18C8 18.55 8.45 19 9 19H15C15.55 19 16 18.55 16 18V16C16 13.79 14.21 12 12 12C9.79 12 8 13.79 8 16ZM14 16V17H10V16C10 14.9 10.9 14 12 14C13.1 14 14 14.9 14 16Z" fill="black"/>
</g>
<defs>
<clipPath id="clip0_69_9413">
<rect width="24" height="24" fill="white"/>
</clipPath>
</defs>
</svg>
