<svg width="24" height="24" viewBox="0 0 24 24" fill="none" xmlns="http://www.w3.org/2000/svg">
<g clip-path="url(#clip0_69_9352)">
<path d="M2.0212 17.7199C2.1212 17.3699 2.4112 17.0999 2.7712 17.0299L5.7512 16.3899C5.7112 14.3799 6.0212 9.47986 9.6212 5.87986C14.1612 1.33986 20.7712 2.01986 21.0512 2.04986C21.5112 2.09986 21.8812 2.46986 21.9312 2.92986C21.9612 3.20986 22.6412 9.81986 18.1112 14.3499C14.6812 17.7799 10.0512 18.2299 7.8912 18.2299C7.7812 18.2299 7.6912 18.2299 7.6012 18.2299L6.9612 21.2099C6.8812 21.5699 6.6212 21.8599 6.2712 21.9599C6.1812 21.9899 6.0812 21.9999 5.9912 21.9999C5.7312 21.9999 5.4712 21.8999 5.2812 21.7099L2.2812 18.7099C2.0212 18.4499 1.9212 18.0699 2.0312 17.7199H2.0212ZM16.7012 12.9399C19.6712 9.96986 19.9912 5.76986 19.9812 3.99986C18.2212 4.03986 14.0212 4.29986 11.0412 7.28986C8.0612 10.2799 7.7512 14.4599 7.7612 16.2299C9.5112 16.2599 13.7212 15.9299 16.7012 12.9399ZM5.3912 18.9899L5.5012 18.4899L5.0012 18.5999L5.4012 18.9999L5.3912 18.9899Z" fill="black"/>
<path d="M18.1113 5.86965C18.5013 6.25965 18.5013 6.88965 18.1113 7.27965C17.7213 7.66965 17.0913 7.66965 16.7013 7.27965C16.3113 6.88965 16.3113 6.25965 16.7013 5.86965C17.0913 5.47965 17.7213 5.47965 18.1113 5.86965Z" fill="black"/>
</g>
<defs>
<clipPath id="clip0_69_9352">
<rect width="24" height="24" fill="white"/>
</clipPath>
</defs>
</svg>
